<?xml version="1.0" encoding="UTF-8"?>
<svg width="124px" height="30px" viewBox="0 0 124 30" version="1.1" xmlns="http://www.w3.org/2000/svg" xmlns:xlink="http://www.w3.org/1999/xlink">
    <!-- Generator: Sketch 43.2 (39069) - http://www.bohemiancoding.com/sketch -->
    <title>CP_4C_E</title>
    <desc>Created with Sketch.</desc>
    <defs></defs>
    <g id="Level-1-+-2" stroke="none" stroke-width="1" fill="none" fill-rule="evenodd">
        <g id="Home-&gt;-Business" transform="translate(-39.000000, -63.000000)">
            <g id="CP_4C_E" transform="translate(39.000000, 63.000000)">
                <polygon id="Fill-1" fill="#004A8E" points="0.163645522 29.65725 123.602239 29.65725 123.602239 0.0165 0.163645522 0.0165"></polygon>
                <path d="M49.8989552,14.890875 C49.8989552,14.749125 49.9000634,14.60925 49.9037575,14.468625 L0.163645522,14.468625 L0.163645522,15.208125 L49.9037575,15.208125 C49.8989552,15.1035 49.8989552,14.994375 49.8989552,14.890875" id="Fill-2" fill="#FFFFFF"></path>
                <path d="M73.8344216,14.468625 C73.8395933,14.60925 73.8443955,14.749125 73.8443955,14.890875 C73.8443955,14.994375 73.8395933,15.1035 73.8344216,15.208125 L123.602239,15.208125 L123.602239,14.468625 L73.8344216,14.468625" id="Fill-3" fill="#FFFFFF"></path>
                <path d="M73.8443955,14.87325 C73.8443955,21.584625 68.4880522,27.02475 61.8676119,27.02475 C55.2571455,27.02475 49.8989552,21.584625 49.8989552,14.87325 C49.8989552,8.155875 55.2571455,2.716875 61.8676119,2.716875 C68.4880522,2.716875 73.8443955,8.155875 73.8443955,14.87325" id="Fill-4" fill="#D3200C"></path>
                <polyline id="Fill-5" fill="#FFFFFF" points="58.0760597 16.456125 58.9249478 15.59475 68.410847 15.16125 68.835291 14.7315 59.4893955 14.7315 54.3923731 8.689125 71.382694 14.44275 65.7219627 20.19675 54.3923731 20.19675 55.5275485 19.0425 65.0104925 18.613875 65.4305037 18.180375 56.3734813 18.180375 57.2249552 17.31525 66.7104851 16.8855 67.1352985 16.456125 58.0760597 16.456125"></polyline>
                <path d="M78.4164963,5.391 L79.7068209,5.391 C80.8153993,5.391 81.8264552,5.718375 81.8264552,6.954 C81.8264552,8.15925 80.9568806,8.593875 79.8704664,8.593875 L79.4375261,8.593875 L79.4375261,10.554 L78.4164963,10.554 L78.4164963,5.391 Z M79.4375261,7.780875 L79.7925224,7.780875 C80.3026679,7.780875 80.762944,7.61325 80.762944,7.014375 C80.762944,6.412875 80.315597,6.206625 79.7925224,6.206625 L79.4375261,6.206625 L79.4375261,7.780875 L79.4375261,7.780875 Z" id="Fill-6" fill="#FFFFFF"></path>
                <path d="M86.6242612,5.303625 C88.2208209,5.303625 89.1132985,6.396 89.1132985,7.9575 C89.1132985,9.5175 88.2359664,10.6425 86.6242612,10.6425 C84.9870672,10.6425 84.1293134,9.54075 84.1293134,7.9575 C84.1293134,6.376125 85.0003657,5.303625 86.6242612,5.303625 Z M86.6242612,9.830625 C87.6604366,9.830625 88.0497873,8.889375 88.0497873,7.9575 C88.0497873,7.05 87.6349478,6.118125 86.6242612,6.118125 C85.6113582,6.118125 85.1935634,7.05 85.1935634,7.9575 C85.1935634,8.889375 85.5781119,9.830625 86.6242612,9.830625 L86.6242612,9.830625 Z" id="Fill-7" fill="#FFFFFF"></path>
                <path d="M94.6033657,6.339375 C94.2834627,6.1995 93.9214478,6.118125 93.5642351,6.118125 C93.2181045,6.118125 92.764847,6.271125 92.764847,6.83325 C92.764847,7.728375 94.9927164,7.351125 94.9927164,9.082875 C94.9927164,10.215375 94.1127985,10.6425 93.086597,10.6425 C92.5310149,10.6425 92.2824067,10.569375 91.7792799,10.444875 L91.877541,9.51 C92.2288433,9.706125 92.6241045,9.830625 93.0260149,9.830625 C93.4157351,9.830625 93.9292052,9.628875 93.9292052,9.1635 C93.9292052,8.18025 91.7013358,8.589375 91.7013358,6.877125 C91.7013358,5.724375 92.5808843,5.303625 93.4763172,5.303625 C93.9192313,5.303625 94.324097,5.3625 94.6964552,5.48775 L94.6033657,6.339375" id="Fill-8" fill="#FFFFFF"></path>
                <polyline id="Fill-9" fill="#FFFFFF" points="98.6686455 6.206625 97.2106119 6.206625 97.2106119 5.391 101.145862 5.391 101.145862 6.206625 99.6845037 6.206625 99.6845037 10.554 98.6686455 10.554 98.6686455 6.206625"></polyline>
                <polyline id="Fill-10" fill="#FFFFFF" points="103.615321 5.391 106.619675 5.391 106.619675 6.206625 104.633396 6.206625 104.633396 7.475625 106.446425 7.475625 106.446425 8.29125 104.633396 8.29125 104.633396 9.74175 106.637776 9.74175 106.637776 10.554 103.615321 10.554 103.615321 5.391"></polyline>
                <path d="M112.222041,6.339375 C111.903246,6.1995 111.540862,6.118125 111.191037,6.118125 C110.83678,6.118125 110.384261,6.271125 110.384261,6.83325 C110.384261,7.728375 112.614347,7.351125 112.614347,9.082875 C112.614347,10.215375 111.732213,10.6425 110.703425,10.6425 C110.150429,10.6425 109.904037,10.569375 109.403866,10.444875 L109.496216,9.51 C109.843086,9.706125 110.24869,9.830625 110.643213,9.830625 C111.030716,9.830625 111.54825,9.628875 111.54825,9.1635 C111.54825,8.18025 109.322966,8.589375 109.322966,6.877125 C109.322966,5.724375 110.206209,5.303625 111.098687,5.303625 C111.538646,5.303625 111.948683,5.3625 112.318086,5.48775 L112.222041,6.339375" id="Fill-11" fill="#FFFFFF"></path>
                <path d="M82.1951194,24.210375 C81.8279328,24.297375 81.4282388,24.373875 81.0414739,24.373875 C79.3994776,24.373875 78.2550672,23.53875 78.2550672,21.7905 C78.2550672,20.023125 79.3163619,19.035 81.0414739,19.035 C81.3783694,19.035 81.8227612,19.098 82.1906866,19.247625 L82.1201306,20.119875 C81.7374291,19.899375 81.3805858,19.848 81.0182015,19.848 C79.9720522,19.848 79.3163619,20.661 79.3163619,21.71925 C79.3163619,22.766625 79.9546903,23.559375 81.0414739,23.559375 C81.4411679,23.559375 81.9217612,23.46975 82.1603955,23.34525 L82.1951194,24.210375" id="Fill-12" fill="#FFFFFF"></path>
                <path d="M86.2260448,19.123875 L87.3856007,19.123875 L89.3788993,24.2805 L88.2477873,24.2805 L87.8126306,23.10075 L85.7506231,23.10075 L85.3080784,24.2805 L84.2519552,24.2805 L86.2260448,19.123875 Z M86.794556,20.15625 L86.7816269,20.15625 L86.0450373,22.29 L87.5233881,22.29 L86.794556,20.15625 L86.794556,20.15625 Z" id="Fill-13" fill="#FFFFFF"></path>
                <polyline id="Fill-14" fill="#FFFFFF" points="91.8058769 19.123875 93.0607388 19.123875 94.994194 22.98375 95.0093396 22.98375 95.0093396 19.123875 95.9901045 19.123875 95.9901045 24.2805 94.7404142 24.2805 92.7995709 20.426625 92.7792537 20.426625 92.7792537 24.2805 91.8058769 24.2805 91.8058769 19.123875"></polyline>
                <path d="M100.39819,19.123875 L101.547772,19.123875 L103.544026,24.2805 L102.412545,24.2805 L101.981821,23.10075 L99.917597,23.10075 L99.4724664,24.2805 L98.4170821,24.2805 L100.39819,19.123875 Z M100.96116,20.15625 L100.943799,20.15625 L100.207209,22.29 L101.698489,22.29 L100.96116,20.15625 L100.96116,20.15625 Z" id="Fill-15" fill="#FFFFFF"></path>
                <path d="M106.025306,19.123875 L107.418325,19.123875 C108.975358,19.123875 110.350646,19.653375 110.350646,21.702 C110.350646,23.751 108.975358,24.2805 107.418325,24.2805 L106.025306,24.2805 L106.025306,19.123875 Z M107.041164,23.46975 L107.612631,23.46975 C108.462257,23.46975 109.288981,22.8255 109.288981,21.702 C109.288981,20.577 108.462257,19.934625 107.612631,19.934625 L107.041164,19.934625 L107.041164,23.46975 L107.041164,23.46975 Z" id="Fill-16" fill="#FFFFFF"></path>
                <path d="M114.559623,19.123875 L115.716963,19.123875 L117.713216,24.2805 L116.579149,24.2805 L116.143993,23.10075 L114.084201,23.10075 L113.63981,24.2805 L112.580731,24.2805 L114.559623,19.123875 Z M115.123332,20.15625 L115.110772,20.15625 L114.374183,22.29 L115.859922,22.29 L115.123332,20.15625 L115.123332,20.15625 Z" id="Fill-17" fill="#FFFFFF"></path>
                <path d="M10.2860261,10.480875 C9.9125597,10.569375 9.51397388,10.6425 9.12794776,10.6425 C7.48077985,10.6425 6.33821642,9.808125 6.33821642,8.062125 C6.33821642,6.295875 7.39951119,5.303625 9.12794776,5.303625 C9.46521269,5.303625 9.90738806,5.371875 10.2734664,5.516625 L10.2054963,6.39075 C9.82057836,6.17175 9.47112313,6.118125 9.1076306,6.118125 C8.05409328,6.118125 7.39951119,6.928875 7.39951119,7.985625 C7.39951119,9.0375 8.04190299,9.830625 9.12794776,9.830625 C9.52653358,9.830625 10.0019552,9.74175 10.2442836,9.6135 L10.2860261,10.480875" id="Fill-18" fill="#FFFFFF"></path>
                <path d="M14.3143657,5.391 L15.4672724,5.391 L17.4602015,10.554 L16.3357388,10.554 L15.8983657,9.372375 L13.8341418,9.372375 L13.3890112,10.554 L12.3328881,10.554 L14.3143657,5.391 Z M14.8762276,6.428625 L14.8662537,6.428625 L14.1256007,8.557125 L15.611709,8.557125 L14.8762276,6.428625 L14.8762276,6.428625 Z" id="Fill-19" fill="#FFFFFF"></path>
                <polyline id="Fill-20" fill="#FFFFFF" points="19.8927201 5.391 21.1409328 5.391 23.0825149 9.252375 23.0947052 9.252375 23.0947052 5.391 24.0691903 5.391 24.0691903 10.554 22.8268881 10.554 20.8808731 6.693 20.8646194 6.693 20.8646194 10.554 19.8927201 10.554 19.8927201 5.391"></polyline>
                <path d="M28.483556,5.391 L29.6368321,5.391 L31.6305,10.554 L30.5016045,10.554 L30.0601679,9.372375 L28.0007463,9.372375 L27.5582015,10.554 L26.5024478,10.554 L28.483556,5.391 Z M29.0468955,6.428625 L29.0295336,6.428625 L28.2925746,8.557125 L29.7775746,8.557125 L29.0468955,6.428625 L29.0468955,6.428625 Z" id="Fill-21" fill="#FFFFFF"></path>
                <path d="M34.1088246,5.391 L35.4992575,5.391 C37.054444,5.391 38.4337948,5.92575 38.4337948,7.973625 C38.4337948,10.022625 37.054444,10.554 35.4992575,10.554 L34.1088246,10.554 L34.1088246,5.391 Z M35.1268993,9.74175 L35.6976269,9.74175 C36.5479925,9.74175 37.3676978,9.100875 37.3676978,7.973625 C37.3676978,6.850125 36.5479925,6.206625 35.6976269,6.206625 L35.1268993,6.206625 L35.1268993,9.74175 L35.1268993,9.74175 Z" id="Fill-22" fill="#FFFFFF"></path>
                <path d="M42.6468358,5.391 L43.7971567,5.391 L45.7926716,10.554 L44.6659925,10.554 L44.2297276,9.372375 L42.1688284,9.372375 L41.7240672,10.554 L40.6657276,10.554 L42.6468358,5.391 Z M43.2101754,6.428625 L43.1961381,6.428625 L42.4584403,8.557125 L43.9456567,8.557125 L43.2101754,6.428625 L43.2101754,6.428625 Z" id="Fill-23" fill="#FFFFFF"></path>
                <path d="M6.50149254,19.123875 L7.78627612,19.123875 C8.89411567,19.123875 9.90738806,19.44825 9.90738806,20.681625 C9.90738806,21.8865 9.04002985,22.326 7.94622761,22.326 L7.51845896,22.326 L7.51845896,24.2805 L6.50149254,24.2805 L6.50149254,19.123875 Z M7.51845896,21.50925 L7.87308582,21.50925 C8.38101493,21.50925 8.84239925,21.340875 8.84239925,20.742375 C8.84239925,20.143875 8.39985448,19.934625 7.87308582,19.934625 L7.51845896,19.934625 L7.51845896,21.50925 L7.51845896,21.50925 Z" id="Fill-24" fill="#FFFFFF"></path>
                <path d="M14.6963284,19.035 C16.2932575,19.035 17.1909067,20.127 17.1909067,21.686625 C17.1909067,23.249625 16.3168993,24.373875 14.6963284,24.373875 C13.068,24.373875 12.2109851,23.269125 12.2109851,21.686625 C12.2109851,20.103 13.087209,19.035 14.6963284,19.035 Z M14.6963284,23.559375 C15.7424776,23.559375 16.1270261,22.6245 16.1270261,21.686625 C16.1270261,20.779125 15.7136642,19.848 14.6963284,19.848 C13.68675,19.848 13.2733881,20.779125 13.2733881,21.686625 C13.2733881,22.6245 13.6568284,23.559375 14.6963284,23.559375 L14.6963284,23.559375 Z" id="Fill-25" fill="#FFFFFF"></path>
                <path d="M22.6776493,20.06775 C22.3558993,19.925625 22.0034888,19.848 21.6455373,19.848 C21.2946045,19.848 20.8457799,20.00175 20.8457799,20.56725 C20.8457799,21.458625 23.0721716,21.084375 23.0721716,22.811625 C23.0721716,23.94375 22.1922537,24.373875 21.1638358,24.373875 C20.613056,24.373875 20.3629701,24.297375 19.8639067,24.173625 L19.9544104,23.241375 C20.3101455,23.434125 20.7076231,23.559375 21.1058396,23.559375 C21.4933433,23.559375 22.0097687,23.358 22.0097687,22.891875 C22.0097687,21.912 19.7793134,22.31925 19.7793134,20.609625 C19.7793134,19.452 20.6596007,19.035 21.5587276,19.035 C21.9938843,19.035 22.4046604,19.091625 22.775541,19.2195 L22.6776493,20.06775" id="Fill-26" fill="#FFFFFF"></path>
                <polyline id="Fill-27" fill="#FFFFFF" points="26.7525336 19.934625 25.2915448 19.934625 25.2915448 19.123875 29.224209 19.123875 29.224209 19.934625 27.7683918 19.934625 27.7683918 24.2805 26.7525336 24.2805 26.7525336 19.934625"></polyline>
            </g>
        </g>
    </g>
</svg>